<svg width="240" height="143" viewBox="0 0 240 143" fill="none" xmlns="http://www.w3.org/2000/svg">
<path d="M0.118225 84.7123H10.7809L23.3742 105.396V84.7123H33.5008V122.222H22.8382L10.2462 101.538V122.222H0.118225V84.7123Z" fill="#004F51"/>
<path d="M195.419 84.7123H209.834L217.282 107.7L224.73 84.7123H239.143V122.222H229.017V99.0189L221.139 122.222H213.423L205.546 99.0189V122.222H195.419V84.7123Z" fill="#004F51"/>
<path d="M72.0608 94.411V84.7123H38.6782V99.6697H46.4902C47.0249 99.6697 47.2862 100.322 46.8995 100.691L38.6782 108.566V122.222H72.0608V112.523H48.8049V108.566H67.8555V98.867H48.8049V94.411H72.0608Z" fill="#004F51"/>
<path d="M109.642 119.627L98.9529 103.455L99.0862 103.252L99.0569 103.207L109.642 86.5657V84.7124H98.6035L92.9502 93.6031L87.2969 84.7124H76.2596V86.5657L86.8449 103.207L86.8156 103.252L86.9489 103.455L76.2596 119.627V122.222H86.6009L92.9502 112.574L99.3009 122.222H109.642V119.627Z" fill="#004F51"/>
<path d="M128.113 112.522H123.986V94.4103H128.113C133.953 94.4103 137.329 97.6797 137.329 103.198C137.329 109.146 133.953 112.522 128.113 112.522ZM143.401 90.5517C139.97 86.8157 134.714 84.7117 128.113 84.7117H113.859V122.221H128.113C134.731 122.221 139.978 120.078 143.401 116.252C144.299 115.27 148.733 110.229 148.423 102.629C148.154 95.9997 144.451 91.6943 143.401 90.5517Z" fill="#004F51"/>
<path d="M171.792 112.79C177.419 112.79 181.384 108.932 181.384 103.466C181.384 98.0011 177.419 94.1424 171.792 94.1424C166.165 94.1424 162.147 98.0011 162.147 103.466C162.147 108.932 166.165 112.79 171.792 112.79ZM151.591 103.466C151.591 92.3211 160.164 84.0158 171.792 84.0158C183.367 84.0158 191.94 92.3211 191.94 103.466C191.94 114.612 183.367 122.917 171.792 122.917C160.164 122.917 151.591 114.612 151.591 103.466Z" fill="#004F51"/>
<path d="M132.153 54.1548C132.153 54.7668 131.379 55.0348 131.001 54.5548L119.383 39.8348C118.941 39.2748 118.127 39.1788 117.567 39.6228L108.067 47.1335C107.645 47.4682 107.021 47.1668 107.021 46.6282V21.4922C107.021 20.8802 107.794 20.6122 108.174 21.0922L119.791 35.8122C120.233 36.3722 121.046 36.4682 121.607 36.0242L131.106 28.5135C131.53 28.1788 132.153 28.4802 132.153 29.0188V54.1548ZM146.75 16.1428L134.202 26.0655C133.923 26.2855 133.517 26.2388 133.295 25.9588L133.285 25.9455L133.293 25.9442C133.293 25.9442 117.503 5.96151 117.426 5.86817C114.41 2.21351 110.41 0.476173 106.41 0.313507C98.3659 -0.0131607 90.4179 6.02418 90.4179 15.6402V58.5442C90.4206 59.6255 91.6726 60.2268 92.5179 59.5495L104.971 49.5868C105.25 49.3642 105.659 49.4108 105.881 49.6908L121.517 69.4868C124.598 73.3868 128.773 75.2055 132.93 75.3295C140.917 75.5668 148.844 69.5455 148.844 59.9948V17.1562C148.844 16.0762 147.598 15.4735 146.75 16.1428Z" fill="#6DCB99"/>
<path d="M69.0053 135.101C69.8573 135.101 70.5413 135.371 71.0546 135.908C71.5679 136.445 71.8239 137.175 71.8239 138.095V142.557H70.5599V138.168C70.5599 137.577 70.3999 137.119 70.0813 136.795C69.7613 136.469 69.3199 136.308 68.7586 136.308C68.1279 136.308 67.6199 136.504 67.2319 136.896C66.8439 137.288 66.6506 137.892 66.6506 138.705V142.557H65.3866V132.384H66.6506V136.336C67.1639 135.513 67.9493 135.101 69.0053 135.101Z" fill="#004F51"/>
<path d="M81.192 136.293C80.5133 136.293 79.952 136.485 79.5066 136.868C79.06 137.25 78.784 137.761 78.6773 138.401H83.532C83.4253 137.713 83.1533 137.189 82.7173 136.83C82.2826 136.473 81.7733 136.293 81.192 136.293ZM78.6773 139.505C78.804 140.154 79.1013 140.658 79.572 141.016C80.0413 141.374 80.62 141.554 81.308 141.554C82.268 141.554 82.9653 141.201 83.4013 140.493L84.476 141.104C83.7693 142.198 82.7026 142.745 81.2786 142.745C80.1253 142.745 79.1893 142.385 78.4666 141.662C77.7453 140.941 77.384 140.028 77.384 138.924C77.384 137.829 77.7373 136.918 78.4453 136.192C79.152 135.465 80.068 135.101 81.192 135.101C82.2573 135.101 83.1266 135.477 83.8 136.228C84.4733 136.978 84.8106 137.882 84.8106 138.938C84.8106 139.122 84.796 139.312 84.7666 139.505H78.6773Z" fill="#004F51"/>
<path d="M93.8873 141.525C94.6233 141.525 95.2393 141.276 95.7326 140.777C96.2273 140.277 96.474 139.66 96.474 138.924C96.474 138.188 96.2273 137.57 95.7326 137.07C95.2393 136.572 94.6233 136.322 93.8873 136.322C93.1607 136.322 92.55 136.572 92.0567 137.07C91.562 137.57 91.3153 138.188 91.3153 138.924C91.3153 139.66 91.562 140.277 92.0567 140.777C92.55 141.276 93.1607 141.525 93.8873 141.525ZM96.474 135.29H97.738V142.557H96.474V141.306C95.8446 142.266 94.9286 142.745 93.7273 142.745C92.71 142.745 91.8433 142.376 91.126 141.634C90.4087 140.893 90.05 139.989 90.05 138.924C90.05 137.858 90.4087 136.954 91.126 136.213C91.8433 135.472 92.71 135.101 93.7273 135.101C94.9286 135.101 95.8446 135.581 96.474 136.54V135.29Z" fill="#004F51"/>
<path d="M103.865 131.948H105.129V142.557H103.865V131.948Z" fill="#004F51"/>
<path d="M115.224 136.511H113.29V140.45C113.29 140.809 113.361 141.063 113.501 141.213C113.642 141.363 113.857 141.441 114.148 141.446C114.438 141.45 114.797 141.443 115.224 141.423V142.557C114.12 142.702 113.31 142.613 112.797 142.289C112.282 141.963 112.026 141.351 112.026 140.45V136.511H110.588V135.29H112.026V133.634L113.29 133.255V135.29H115.224V136.511Z" fill="#004F51"/>
<path d="M124.548 135.101C125.4 135.101 126.084 135.371 126.597 135.908C127.11 136.445 127.366 137.175 127.366 138.095V142.557H126.102V138.168C126.102 137.577 125.942 137.119 125.624 136.795C125.304 136.469 124.862 136.308 124.301 136.308C123.67 136.308 123.162 136.504 122.774 136.896C122.386 137.288 122.193 137.892 122.193 138.705V142.557H120.929V132.384H122.193V136.336C122.706 135.513 123.492 135.101 124.548 135.101Z" fill="#004F51"/>
<path d="M137.286 136.511H135.354V140.45C135.354 140.809 135.424 141.063 135.564 141.213C135.705 141.363 135.92 141.441 136.21 141.446C136.501 141.45 136.86 141.443 137.286 141.423V142.557C136.182 142.702 135.373 142.613 134.86 142.289C134.346 141.963 134.089 141.351 134.089 140.45V136.511H132.65V135.29H134.089V133.634L135.354 133.255V135.29H137.286V136.511Z" fill="#004F51"/>
<path d="M146.029 136.293C145.35 136.293 144.789 136.485 144.343 136.868C143.897 137.25 143.621 137.761 143.514 138.401H148.369C148.262 137.713 147.99 137.189 147.555 136.83C147.119 136.473 146.61 136.293 146.029 136.293ZM143.514 139.505C143.641 140.154 143.938 140.658 144.409 141.016C144.878 141.374 145.457 141.554 146.145 141.554C147.105 141.554 147.802 141.201 148.238 140.493L149.313 141.104C148.606 142.198 147.541 142.745 146.115 142.745C144.963 142.745 144.026 142.385 143.303 141.662C142.582 140.941 142.221 140.028 142.221 138.924C142.221 137.829 142.574 136.918 143.282 136.192C143.989 135.465 144.905 135.101 146.029 135.101C147.094 135.101 147.963 135.477 148.638 136.228C149.311 136.978 149.647 137.882 149.647 138.938C149.647 139.122 149.633 139.312 149.603 139.505H143.514Z" fill="#004F51"/>
<path d="M158.71 142.746C157.615 142.746 156.705 142.38 155.978 141.648C155.251 140.918 154.887 140.008 154.887 138.924C154.887 137.839 155.251 136.93 155.978 136.199C156.705 135.467 157.615 135.102 158.71 135.102C159.427 135.102 160.071 135.274 160.643 135.618C161.214 135.962 161.641 136.424 161.922 137.006L160.861 137.615C160.677 137.228 160.394 136.918 160.01 136.686C159.627 136.452 159.194 136.336 158.71 136.336C157.983 136.336 157.375 136.584 156.886 137.078C156.397 137.572 156.153 138.187 156.153 138.924C156.153 139.651 156.397 140.26 156.886 140.755C157.375 141.248 157.983 141.496 158.71 141.496C159.194 141.496 159.63 141.382 160.018 141.155C160.405 140.927 160.701 140.619 160.905 140.231L161.979 140.856C161.67 141.428 161.225 141.886 160.643 142.23C160.062 142.574 159.417 142.746 158.71 142.746Z" fill="#004F51"/>
<path d="M171.057 135.101C171.909 135.101 172.593 135.371 173.106 135.908C173.619 136.445 173.875 137.175 173.875 138.095V142.557H172.611V138.168C172.611 137.577 172.451 137.119 172.133 136.795C171.813 136.469 171.371 136.308 170.81 136.308C170.179 136.308 169.671 136.504 169.283 136.896C168.895 137.288 168.702 137.892 168.702 138.705V142.557H167.438V132.384H168.702V136.336C169.215 135.513 170.001 135.101 171.057 135.101Z" fill="#004F51"/>
</svg>
