<svg width="33" height="34" viewBox="0 0 33 34" fill="none" xmlns="http://www.w3.org/2000/svg">
<path d="M32.443 17.0375C32.443 25.9588 25.211 33.1908 16.2897 33.1908C7.36834 33.1908 0.136353 25.9588 0.136353 17.0375C0.136353 8.11616 7.36834 0.884163 16.2897 0.884163C25.211 0.884163 32.443 8.11616 32.443 17.0375Z" fill="#004F51"/>
<path d="M16.2895 9.42757C14.2228 9.42757 13.9642 9.4369 13.1522 9.4729C12.3415 9.51024 11.7895 9.63957 11.3042 9.82757C10.8042 10.0222 10.3802 10.2822 9.95616 10.7049C9.53349 11.1276 9.27349 11.5529 9.07883 12.0529C8.89083 12.5369 8.76283 13.0902 8.72549 13.8996C8.68816 14.7116 8.68016 14.9702 8.68016 17.0369C8.68016 19.1049 8.68816 19.3636 8.72549 20.1756C8.76283 20.9849 8.89083 21.5382 9.07883 22.0222C9.27349 22.5222 9.53349 22.9476 9.95616 23.3702C10.3802 23.7929 10.8042 24.0529 11.3042 24.2476C11.7895 24.4356 12.3415 24.5649 13.1522 24.6022C13.9642 24.6382 14.2228 24.6476 16.2895 24.6476C18.3561 24.6476 18.6148 24.6382 19.4268 24.6022C20.2375 24.5649 20.7895 24.4356 21.2748 24.2476C21.7748 24.0529 22.1988 23.7929 22.6228 23.3702C23.0455 22.9476 23.3055 22.5222 23.5001 22.0222C23.6881 21.5382 23.8161 20.9849 23.8535 20.1756C23.8908 19.3636 23.8988 19.1049 23.8988 17.0369C23.8988 14.9702 23.8908 14.7116 23.8535 13.8996C23.8161 13.0902 23.6881 12.5369 23.5001 12.0529C23.3055 11.5529 23.0455 11.1276 22.6228 10.7049C22.1988 10.2822 21.7748 10.0222 21.2748 9.82757C20.7895 9.63957 20.2375 9.51024 19.4268 9.4729C18.6148 9.4369 18.3561 9.42757 16.2895 9.42757ZM16.2895 10.7982C18.3215 10.7982 18.5615 10.8062 19.3641 10.8436C20.1068 10.8769 20.5095 11.0009 20.7775 11.1049C21.1335 11.2436 21.3868 11.4076 21.6521 11.6742C21.9188 11.9409 22.0841 12.1942 22.2215 12.5489C22.3255 12.8182 22.4495 13.2209 22.4841 13.9622C22.5201 14.7649 22.5281 15.0049 22.5281 17.0369C22.5281 19.0689 22.5201 19.3102 22.4841 20.1129C22.4495 20.8542 22.3255 21.2569 22.2215 21.5249C22.0841 21.8809 21.9188 22.1342 21.6521 22.4009C21.3868 22.6662 21.1335 22.8316 20.7775 22.9702C20.5095 23.0742 20.1068 23.1982 19.3641 23.2316C18.5615 23.2689 18.3215 23.2756 16.2895 23.2756C14.2575 23.2756 14.0175 23.2689 13.2148 23.2316C12.4722 23.1982 12.0695 23.0742 11.8015 22.9702C11.4455 22.8316 11.1922 22.6662 10.9268 22.4009C10.6602 22.1342 10.4948 21.8809 10.3575 21.5249C10.2535 21.2569 10.1295 20.8542 10.0948 20.1129C10.0588 19.3102 10.0508 19.0689 10.0508 17.0369C10.0508 15.0049 10.0588 14.7649 10.0948 13.9622C10.1295 13.2209 10.2535 12.8182 10.3575 12.5489C10.4948 12.1942 10.6602 11.9409 10.9268 11.6742C11.1922 11.4076 11.4455 11.2436 11.8015 11.1049C12.0695 11.0009 12.4722 10.8769 13.2148 10.8436C14.0175 10.8062 14.2575 10.7982 16.2895 10.7982Z" fill="white"/>
<path d="M16.2894 19.5742C14.8881 19.5742 13.7535 18.4382 13.7535 17.0382C13.7535 15.6369 14.8881 14.5009 16.2894 14.5009C17.6908 14.5009 18.8254 15.6369 18.8254 17.0382C18.8254 18.4382 17.6908 19.5742 16.2894 19.5742ZM16.2894 13.1302C14.1308 13.1302 12.3815 14.8795 12.3815 17.0382C12.3815 19.1955 14.1308 20.9449 16.2894 20.9449C18.4481 20.9449 20.1974 19.1955 20.1974 17.0382C20.1974 14.8795 18.4481 13.1302 16.2894 13.1302Z" fill="white"/>
<path d="M21.2649 12.9753C21.2649 13.4793 20.8555 13.8887 20.3515 13.8887C19.8475 13.8887 19.4382 13.4793 19.4382 12.9753C19.4382 12.4713 19.8475 12.062 20.3515 12.062C20.8555 12.062 21.2649 12.4713 21.2649 12.9753Z" fill="white"/>
</svg>
