<svg width="33" height="34" viewBox="0 0 33 34" fill="none" xmlns="http://www.w3.org/2000/svg">
<path d="M32.8683 17.0375C32.8683 25.9588 25.6363 33.1908 16.715 33.1908C7.79363 33.1908 0.561646 25.9588 0.561646 17.0375C0.561646 8.11616 7.79363 0.884163 16.715 0.884163C25.6363 0.884163 32.8683 8.11616 32.8683 17.0375Z" fill="#004F51"/>
<path d="M9.52844 24.084H12.6899V14.5747H9.52844V24.084ZM11.1298 9.99067C10.0485 9.99067 9.34045 10.7014 9.34045 11.6334C9.34045 12.5467 10.0272 13.2773 11.0885 13.2773H11.1085C12.2112 13.2773 12.8979 12.5467 12.8979 11.6334C12.8766 10.7014 12.2112 9.99067 11.1298 9.99067ZM24.0885 18.6307V24.084H20.9272V18.996C20.9272 17.7187 20.4711 16.8467 19.3258 16.8467C18.4525 16.8467 17.9339 17.4333 17.7045 18.0027C17.6205 18.2053 17.5992 18.488 17.5992 18.7733V24.084H14.4378C14.4378 24.084 14.4804 15.4667 14.4378 14.5747H17.5992V15.9227C17.5992 15.9333 17.5845 15.9427 17.5792 15.9533H17.5992V15.9227C18.0192 15.276 18.7685 14.352 20.4485 14.352C22.5298 14.352 24.0885 15.7107 24.0885 18.6307Z" fill="#EFF0EF"/>
</svg>
